{"accessors" : [{"bufferView" : 0, "byteOffset" : 0, "componentType" : 5123, "count" : 2712, "type" : "SCALAR", "max" : [2255], "min" : [0]}, {"bufferView" : 1, "byteOffset" : 0, "componentType" : 5126, "count" : 2256, "type" : "VEC3", "max" : [-1.399999976158142, 4.099999904632568, 7.400000095367432], "min" : [-4.099999904632568, -0.10000000149011612, 0], "name" : "POSITION"}, {"bufferView" : 0, "byteOffset" : 5424, "componentType" : 5123, "count" : 36, "type" : "SCALAR", "max" : [30], "min" : [0]}, {"bufferView" : 2, "byteOffset" : 0, "componentType" : 5126, "count" : 31, "type" : "VEC3", "max" : [-1.5, 4, 0.20000000298023224], "min" : [-4, 0, 0], "name" : "POSITION"}], "asset" : {"generator" : "Aspose.3D 22.12", "version" : "2.0"}, "buffers" : [{"uri" : "data:application/octet-stream;base64,", "byteLength" : 38484}], "bufferViews" : [{"buffer" : 0, "byteOffset" : 0, "byteLength" : 5496, "target" : 34963}, {"buffer" : 0, "byteOffset" : 5500, "byteLength" : 32544, "byteStride" : 12, "target" : 34962}, {"buffer" : 0, "byteOffset" : 38048, "byteLength" : 432, "byteStride" : 12, "target" : 34962}], "meshes" : [{"primitives" : [{"attributes" : {"POSITION" : 1}, "indices" : 0, "mode" : 4}], "name" : ""}, {"primitives" : [{"attributes" : {"POSITION" : 3}, "indices" : 2, "mode" : 4}], "name" : ""}], "nodes" : [{"mesh" : 0, "name" : "___01"}, {"mesh" : 1, "name" : "___02"}], "scene" : 0, "scenes" : [{"nodes" : [0, 1]}]}