{
	"asset":{
		"generator":"Khronos glTF Blender I/O v4.2.57",
		"version":"2.0"
	},
	"extensionsUsed":[
		"KHR_materials_clearcoat"
	],
	"scene":0,
	"scenes":[
		{
			"name":"Scene",
			"nodes":[
				4
			]
		}
	],
	"nodes":[
		{
			"mesh":0,
			"name":"mesh_0"
		},
		{
			"mesh":1,
			"name":"mesh_1"
		},
		{
			"mesh":2,
			"name":"mesh_2"
		},
		{
			"mesh":3,
			"name":"mesh_3"
		},
		{
			"children":[
				0,
				1,
				2,
				3
			],
			"name":"root"
		}
	],
	"materials":[
		{
			"doubleSided":true,
			"extensions":{
				"KHR_materials_clearcoat":{
					"clearcoatRoughnessFactor":0
				}
			},
			"name":"material_0.003",
			"pbrMetallicRoughness":{
				"baseColorFactor":[
					0.20863686501979828,
					0.20863686501979828,
					0.23839759826660156,
					1
				],
				"metallicFactor":0,
				"roughnessFactor":0.1666666567325592
			}
		},
		{
			"doubleSided":true,
			"extensions":{
				"KHR_materials_clearcoat":{
					"clearcoatFactor":0.11999999731779099,
					"clearcoatRoughnessFactor":1,
					"clearcoatRoughnessTexture":{
						"index":0
					}
				}
			},
			"name":"material_1.003",
			"normalTexture":{
				"index":1
			},
			"pbrMetallicRoughness":{
				"baseColorFactor":[
					0.1119324341416359,
					0.45078131556510925,
					0.9046521186828613,
					1
				],
				"metallicFactor":0,
				"metallicRoughnessTexture":{
					"index":2
				}
			}
		},
		{
			"doubleSided":true,
			"extensions":{
				"KHR_materials_clearcoat":{
					"clearcoatRoughnessFactor":0
				}
			},
			"name":"material_2.003",
			"normalTexture":{
				"index":3
			},
			"pbrMetallicRoughness":{
				"baseColorTexture":{
					"index":4
				},
				"metallicFactor":0,
				"metallicRoughnessTexture":{
					"index":5
				}
			}
		},
		{
			"doubleSided":true,
			"extensions":{
				"KHR_materials_clearcoat":{
					"clearcoatFactor":0.11999999731779099,
					"clearcoatRoughnessFactor":1,
					"clearcoatRoughnessTexture":{
						"index":6
					}
				}
			},
			"name":"material_3.003",
			"normalTexture":{
				"index":7
			},
			"pbrMetallicRoughness":{
				"baseColorFactor":[
					0,
					0,
					0,
					1
				],
				"metallicFactor":0,
				"metallicRoughnessTexture":{
					"index":8
				}
			}
		}
	],
	"meshes":[
		{
			"name":"mesh_0.003",
			"primitives":[
				{
					"attributes":{
						"POSITION":0,
						"NORMAL":1,
						"TEXCOORD_0":2
					},
					"indices":3,
					"material":0
				}
			]
		},
		{
			"name":"mesh_1.003",
			"primitives":[
				{
					"attributes":{
						"POSITION":4,
						"NORMAL":5,
						"TEXCOORD_0":6
					},
					"indices":7,
					"material":1
				}
			]
		},
		{
			"name":"mesh_2.003",
			"primitives":[
				{
					"attributes":{
						"POSITION":8,
						"NORMAL":9,
						"TEXCOORD_0":10
					},
					"indices":11,
					"material":2
				}
			]
		},
		{
			"name":"mesh_3.003",
			"primitives":[
				{
					"attributes":{
						"POSITION":12,
						"NORMAL":13,
						"TEXCOORD_0":14
					},
					"indices":15,
					"material":3
				}
			]
		}
	],
	"textures":[
		{
			"sampler":0,
			"source":0
		},
		{
			"sampler":0,
			"source":1
		},
		{
			"sampler":0,
			"source":2
		},
		{
			"sampler":0,
			"source":3
		},
		{
			"sampler":0,
			"source":4
		},
		{
			"sampler":0,
			"source":5
		},
		{
			"sampler":0,
			"source":6
		},
		{
			"sampler":0,
			"source":7
		},
		{
			"sampler":0,
			"source":8
		}
	],
	"images":[
		{
			"mimeType":"image/png",
			"name":"ddd1cfa1-7d56-40a7-bbc5-ff95d149efd3",
			"uri":"ddd1cfa1-7d56-40a7-bbc5-ff95d149efd3.png"
		},
		{
			"mimeType":"image/png",
			"name":"6e0aa8dc-b25c-4e42-9b93-7f136d9215a8",
			"uri":"6e0aa8dc-b25c-4e42-9b93-7f136d9215a8.png"
		},
		{
			"mimeType":"image/png",
			"name":"544f85ae-f1ca-4384-96d9-3c86ed78959a",
			"uri":"544f85ae-f1ca-4384-96d9-3c86ed78959a.png"
		},
		{
			"mimeType":"image/png",
			"name":"1be5f620-428a-4d97-8286-ce14d06e0a6e",
			"uri":"1be5f620-428a-4d97-8286-ce14d06e0a6e.png"
		},
		{
			"mimeType":"image/png",
			"name":"2f681b2b-caf8-427a-a46e-5b02ae663be9",
			"uri":"2f681b2b-caf8-427a-a46e-5b02ae663be9.png"
		},
		{
			"mimeType":"image/png",
			"name":"9c8dbfa2-8045-456c-8f20-86137b0f97bb",
			"uri":"9c8dbfa2-8045-456c-8f20-86137b0f97bb.png"
		},
		{
			"mimeType":"image/png",
			"name":"5721c5b7-a45c-433f-a522-4162ff532ec2",
			"uri":"5721c5b7-a45c-433f-a522-4162ff532ec2.png"
		},
		{
			"mimeType":"image/png",
			"name":"208e94b7-70bb-41e9-a970-8f1ad31a6b10",
			"uri":"208e94b7-70bb-41e9-a970-8f1ad31a6b10.png"
		},
		{
			"mimeType":"image/png",
			"name":"46779029-ef41-4d2c-991d-4d6260c542ef",
			"uri":"46779029-ef41-4d2c-991d-4d6260c542ef.png"
		}
	],
	"accessors":[
		{
			"bufferView":0,
			"componentType":5126,
			"count":3205,
			"max":[
				0.03448817506432533,
				0.09584522247314453,
				0.03708760440349579
			],
			"min":[
				-0.007604524493217468,
				-0.08345131576061249,
				-0.043991804122924805
			],
			"type":"VEC3"
		},
		{
			"bufferView":1,
			"componentType":5126,
			"count":3205,
			"type":"VEC3"
		},
		{
			"bufferView":2,
			"componentType":5126,
			"count":3205,
			"type":"VEC2"
		},
		{
			"bufferView":3,
			"componentType":5123,
			"count":5631,
			"type":"SCALAR"
		},
		{
			"bufferView":4,
			"componentType":5126,
			"count":17382,
			"max":[
				0.02542651817202568,
				0.08958303928375244,
				0.05001189932227135
			],
			"min":[
				-0.03449076786637306,
				0.029630836099386215,
				-0.009957265108823776
			],
			"type":"VEC3"
		},
		{
			"bufferView":5,
			"componentType":5126,
			"count":17382,
			"type":"VEC3"
		},
		{
			"bufferView":6,
			"componentType":5126,
			"count":17382,
			"type":"VEC2"
		},
		{
			"bufferView":7,
			"componentType":5123,
			"count":71637,
			"type":"SCALAR"
		},
		{
			"bufferView":8,
			"componentType":5126,
			"count":112,
			"max":[
				-0.0016118364874273539,
				0.04732813686132431,
				0.01733207516372204
			],
			"min":[
				-0.0076118409633636475,
				-0.08345131576061249,
				-0.043991804122924805
			],
			"type":"VEC3"
		},
		{
			"bufferView":9,
			"componentType":5126,
			"count":112,
			"type":"VEC3"
		},
		{
			"bufferView":10,
			"componentType":5126,
			"count":112,
			"type":"VEC2"
		},
		{
			"bufferView":11,
			"componentType":5123,
			"count":312,
			"type":"SCALAR"
		},
		{
			"bufferView":12,
			"componentType":5126,
			"count":9201,
			"max":[
				0.015492565929889679,
				-0.06784658133983612,
				0.03973732516169548
			],
			"min":[
				-0.024507425725460052,
				-0.09584657847881317,
				-0.050011955201625824
			],
			"type":"VEC3"
		},
		{
			"bufferView":13,
			"componentType":5126,
			"count":9201,
			"type":"VEC3"
		},
		{
			"bufferView":14,
			"componentType":5126,
			"count":9201,
			"type":"VEC2"
		},
		{
			"bufferView":15,
			"componentType":5123,
			"count":29544,
			"type":"SCALAR"
		}
	],
	"bufferViews":[
		{
			"buffer":0,
			"byteLength":38460,
			"byteOffset":0,
			"target":34962
		},
		{
			"buffer":0,
			"byteLength":38460,
			"byteOffset":38460,
			"target":34962
		},
		{
			"buffer":0,
			"byteLength":25640,
			"byteOffset":76920,
			"target":34962
		},
		{
			"buffer":0,
			"byteLength":11262,
			"byteOffset":102560,
			"target":34963
		},
		{
			"buffer":0,
			"byteLength":208584,
			"byteOffset":113824,
			"target":34962
		},
		{
			"buffer":0,
			"byteLength":208584,
			"byteOffset":322408,
			"target":34962
		},
		{
			"buffer":0,
			"byteLength":139056,
			"byteOffset":530992,
			"target":34962
		},
		{
			"buffer":0,
			"byteLength":143274,
			"byteOffset":670048,
			"target":34963
		},
		{
			"buffer":0,
			"byteLength":1344,
			"byteOffset":813324,
			"target":34962
		},
		{
			"buffer":0,
			"byteLength":1344,
			"byteOffset":814668,
			"target":34962
		},
		{
			"buffer":0,
			"byteLength":896,
			"byteOffset":816012,
			"target":34962
		},
		{
			"buffer":0,
			"byteLength":624,
			"byteOffset":816908,
			"target":34963
		},
		{
			"buffer":0,
			"byteLength":110412,
			"byteOffset":817532,
			"target":34962
		},
		{
			"buffer":0,
			"byteLength":110412,
			"byteOffset":927944,
			"target":34962
		},
		{
			"buffer":0,
			"byteLength":73608,
			"byteOffset":1038356,
			"target":34962
		},
		{
			"buffer":0,
			"byteLength":59088,
			"byteOffset":1111964,
			"target":34963
		}
	],
	"samplers":[
		{
			"magFilter":9729,
			"minFilter":9987
		}
	],
	"buffers":[
		{
			"byteLength":1171052,
			"uri":"03.bin"
		}
	]
}
